<svg width="16" height="12" viewBox="0 0 16 12" fill="none" xmlns="http://www.w3.org/2000/svg">
<path fill-rule="evenodd" clip-rule="evenodd" d="M15.1666 9.99935V2.66602C15.1666 1.56145 14.2712 0.666016 13.1666 0.666016L2.83325 0.666026C1.72868 0.666027 0.833252 1.56146 0.833252 2.66603V9.99934C0.833252 11.1039 1.72868 11.9993 2.83325 11.9993L13.1666 11.9993C14.2712 11.9993 15.1666 11.1039 15.1666 9.99935ZM13.8333 4.17232V9.99935C13.8333 10.3675 13.5348 10.666 13.1666 10.666L2.83325 10.666C2.46506 10.666 2.16659 10.3675 2.16659 9.99934L2.16659 4.17223L6.87536 7.3742C7.55408 7.83573 8.44588 7.83573 9.1246 7.3742L13.8333 4.17232ZM13.8257 2.56509C13.777 2.24479 13.5005 1.99935 13.1666 1.99935L2.83325 1.99936C2.4994 1.99936 2.22287 2.24476 2.17419 2.56501L7.62511 6.27164C7.85135 6.42548 8.14862 6.42548 8.37486 6.27164L13.8257 2.56509Z" fill="white"/>
</svg>
