<svg width="10" height="16" viewBox="0 0 10 16" fill="none" xmlns="http://www.w3.org/2000/svg">
<path fill-rule="evenodd" clip-rule="evenodd" d="M2.66659 1.94857C2.1143 1.94857 1.66659 2.39628 1.66659 2.94857V13.0527C1.66659 13.605 2.1143 14.0527 2.66659 14.0527H7.33325C7.88554 14.0527 8.33325 13.605 8.33325 13.0527V2.94857C8.33325 2.39628 7.88554 1.94857 7.33325 1.94857H7.27767L7.11529 2.3382C7.01176 2.58661 6.76904 2.74842 6.49992 2.74842H3.49992C3.2308 2.74842 2.98807 2.58661 2.88455 2.3382L2.72217 1.94857H2.66659ZM0.333252 2.94857C0.333252 1.6599 1.37792 0.615234 2.66659 0.615234H7.33325C8.62192 0.615234 9.66659 1.6599 9.66659 2.94857V13.0527C9.66659 14.3414 8.62192 15.3861 7.33325 15.3861H2.66659C1.37792 15.3861 0.333252 14.3414 0.333252 13.0527V2.94857Z" fill="white"/>
</svg>
